<svg xmlns="http://www.w3.org/2000/svg" width="200" height="200" viewBox="0 0 200 200">
  <!-- Base shape of the gem -->
  <polygon points="50,10 150,10 190,50 190,150 150,190 50,190 10,150 10,50" fill="green" stroke="darkgreen" stroke-width="5"/>
  <!-- Facet lines -->
  <line x1="50" y1="10" x2="150" y2="190" stroke="darkgreen" stroke-width="2"/>
  <line x1="150" y1="10" x2="50" y2="190" stroke="darkgreen" stroke-width="2"/>
  <line x1="10" y1="50" x2="190" y2="150" stroke="darkgreen" stroke-width="2"/>
  <line x1="10" y1="150" x2="190" y2="50" stroke="darkgreen" stroke-width="2"/>
  <!-- Additional facets -->
  <line x1="50" y1="10" x2="10" y2="50" stroke="darkgreen" stroke-width="2"/>
  <line x1="150" y1="10" x2="190" y2="50" stroke="darkgreen" stroke-width="2"/>
  <line x1="50" y1="190" x2="10" y2="150" stroke="darkgreen" stroke-width="2"/>
  <line x1="150" y1="190" x2="190" y2="150" stroke="darkgreen" stroke-width="2"/>
  <!-- Inner facets -->
  <line x1="50" y1="10" x2="190" y2="150" stroke="darkgreen" stroke-width="2"/>
  <line x1="150" y1="10" x2="10" y2="150" stroke="darkgreen" stroke-width="2"/>
  <line x1="10" y1="50" x2="150" y2="190" stroke="darkgreen" stroke-width="2"/>
  <line x1="190" y1="50" x2="50" y2="190" stroke="darkgreen" stroke-width="2"/>
</svg>
